<?xml version="1.0" encoding="utf-8"?>
<!-- Generator: Adobe Illustrator 19.0.0, SVG Export Plug-In . SVG Version: 6.00 Build 0)  -->
<svg version="1.1" id="Layer_1" xmlns="http://www.w3.org/2000/svg" xmlns:xlink="http://www.w3.org/1999/xlink" x="0px" y="0px"
	 viewBox="0 0 256 256" style="enable-background:new 0 0 256 256;" xml:space="preserve">
<path id="XMLID_3_" class="st0" d="M182.3,1.9c0,0-29.6,7-48.1,29c0,0,74.6-19,121.1,46.3c0,0-17.7-13.3-54.2-13.2
	c0,0,64.6,36.8,53,118.1c0,0-7.6-30.9-29.2-47.8c0,0,20,74.3-46.1,121.6c0,0,15.7-21.8,13.7-54.4c0,0-36.5,65.6-118.8,53.1
	c0,0,25.8-4.4,48.2-29.1c0,0-70.8,20.5-121.6-46.4c0,0,24,15.9,54.5,13.5c0,0-63.7-33.2-53.1-119.1c0,0,4.2,24.9,29,49.3
	c0,0-20.3-71.5,46.7-122.5c0,0-16.7,26.6-13.3,55C64.1,55.1,99.9-9.8,182.3,1.9z"/>
</svg>
